# xmcd CD database file
#
# Track frame offsets:
#	150
#	20470
#	51702
#
# Disc length: 4440 seconds
#
# Revision: 0
# Processed by: cddbd v1.5.1PL0 Copyright (c) Steve Scherf et al.
# Submitted via: CDex 1.51
#
DISCID=24115603
DTITLE=TRIPLANE - Reset
DYEAR=2005
DGENRE=Pop
TTITLE0=Reset
TTITLE1=ゲンジボタル
TTITLE2=CCCD
EXTD=YEAR: 2005
EXTT0=
EXTT1=
EXTT2=
PLAYORDER=
